<?xml version="1.0" encoding="UTF-8" standalone="no"?>
<!DOCTYPE svg PUBLIC "-//W3C//DTD SVG 1.1//EN" "http://www.w3.org/Graphics/SVG/1.1/DTD/svg11.dtd">
<svg width="100%" height="100%" viewBox="0 0 41 41" version="1.1" xmlns="http://www.w3.org/2000/svg" xmlns:xlink="http://www.w3.org/1999/xlink" xml:space="preserve" xmlns:serif="http://www.serif.com/" style="fill-rule:evenodd;clip-rule:evenodd;stroke-linecap:round;stroke-linejoin:round;stroke-miterlimit:1.5;">
    <g transform="matrix(1,0,0,1,-1533.13,-319.327)">
        <g transform="matrix(1.19857,0,0,1.19857,-584.16,304.918)">
            <path d="M1769.33,37.799C1767.6,35.177 1766.92,32.39 1766.92,29.009C1766.92,19.864 1774.29,12.439 1783.38,12.439C1792.46,12.439 1799.83,19.864 1799.83,29.009C1799.83,38.155 1792.46,45.58 1783.38,45.58C1780.05,45.58 1777.43,44.921 1774.84,43.211C1774.84,43.211 1770.13,44.711 1768.27,45.23C1767.73,45.379 1767.41,44.881 1767.47,44.504C1767.55,43.969 1769.33,37.799 1769.33,37.799Z" style="fill:rgb(0,255,28);stroke:rgb(179,179,179);stroke-width:0.83px;"/>
        </g>
        <g transform="matrix(1.19857,0,0,1.19857,-584.458,304.958)">
            <path d="M1778.25,26.619C1780.32,30.638 1783.25,32.621 1786.26,33.708L1789.12,30.844L1793.85,33.505C1792.83,40.24 1785.11,39.421 1779.71,35.24C1775.62,32.076 1773.27,27.276 1773.41,24.436C1773.52,23.076 1773.87,21.731 1775.01,20.435L1775.75,19.607C1776.27,19.48 1776.83,19.412 1777.48,19.574C1778.46,20.575 1779.29,22.026 1779.93,24.135C1779.74,25.035 1779.18,25.863 1778.25,26.619Z" style="fill:white;"/>
        </g>
    </g>
</svg>
