<?xml version="1.0" encoding="UTF-8" standalone="no"?>
<!DOCTYPE svg PUBLIC "-//W3C//DTD SVG 1.1//EN" "http://www.w3.org/Graphics/SVG/1.1/DTD/svg11.dtd">
<svg width="100%" height="100%" viewBox="0 0 394 157" version="1.1" xmlns="http://www.w3.org/2000/svg" xmlns:xlink="http://www.w3.org/1999/xlink" xml:space="preserve" xmlns:serif="http://www.serif.com/" style="fill-rule:evenodd;clip-rule:evenodd;stroke-linejoin:round;stroke-miterlimit:2;">
    <g transform="matrix(1,0,0,1,-763.432,-189.58)">
        <g transform="matrix(1.17369,0,0,1.17369,-164.278,-6.17465)">
            <g transform="matrix(1,0,0,1,3.64529,9.95548)">
                <g transform="matrix(0.353548,0,0,0.353548,528.182,-704.139)">
                    <circle cx="1389.56" cy="2759.58" r="24.302" style="fill:rgb(206,32,38);"/>
                </g>
                <g transform="matrix(0.137448,0,0,0.137448,896.333,5.22653)">
                    <path d="M944.44,1808.56C996.398,1828.24 1033.38,1878.48 1033.38,1937.3C1033.38,2013.24 971.724,2074.89 895.781,2074.89C869.28,2074.89 844.518,2067.39 823.51,2054.38L833.857,2033.35C851.704,2044.89 872.967,2051.59 895.781,2051.59C958.86,2051.59 1010.07,2000.38 1010.07,1937.3C1010.07,1887.65 978.352,1845.36 934.092,1829.6L944.44,1808.56ZM789.456,2024.6C769.918,2000.84 758.183,1970.43 758.183,1937.3C758.183,1861.35 819.839,1799.7 895.781,1799.7C897.214,1799.7 898.642,1799.72 900.065,1799.76L888.519,1823.23C828.819,1826.99 781.491,1876.66 781.491,1937.3C781.491,1960.93 788.683,1982.91 800.997,2001.14L789.456,2024.6Z" style="fill:rgb(98,97,97);"/>
                </g>
                <g transform="matrix(0.349592,0,0,0.339378,545.334,-666.645)">
                    <rect x="953.82" y="2708.03" width="11.152" height="112.086" style="fill:rgb(98,97,97);"/>
                </g>
                <g transform="matrix(1.94182,0,0,1.79835,-6874.51,-4908.98)">
                    <path d="M4002.99,2870.03L4002.99,2873.8C4005.66,2871.4 4007.44,2870.03 4008.57,2870.03C4009.79,2870.03 4010.92,2870.45 4011.97,2871.27C4012.35,2871.57 4012.91,2872.09 4012.91,2872.09L4011.42,2873.58C4011.42,2873.58 4010.36,2872.62 4009.93,2872.4C4009.51,2872.19 4009.09,2872.09 4008.69,2872.09C4007.79,2872.09 4006.1,2873.71 4002.99,2876.49L4002.99,2891.18L4000.94,2891.18C4000.96,2891.32 4000.94,2889.34 4000.94,2889.2L4000.94,2872.11C4000.91,2872.1 4000.95,2870.02 4000.94,2870.03L4002.99,2870.03Z" style="fill:rgb(98,97,97);fill-rule:nonzero;"/>
                </g>
                <g transform="matrix(1.94182,0,0,1.738,-6888.86,-4735.86)">
                    <path d="M4031.24,2870.03L4038.58,2870.03L4038.58,2872.11L4031.24,2872.11L4031.24,2885.76C4031.24,2886.95 4031.71,2887.94 4032.66,2888.74C4033.62,2889.53 4035.88,2889.93 4037,2889.94C4037.07,2889.94 4038.58,2889.95 4038.58,2889.95L4038.58,2891.97C4038.58,2891.97 4037.07,2891.98 4037,2891.98C4034.61,2891.98 4032.7,2891.42 4031.29,2890.3C4029.87,2889.18 4029.16,2887.66 4029.16,2885.76L4029.16,2872.11L4023.99,2872.11L4023.99,2870.03L4029.16,2870.03L4029.21,2860.45L4031.29,2860.45L4031.24,2870.03Z" style="fill:rgb(98,97,97);fill-rule:nonzero;"/>
                </g>
                <g transform="matrix(84.6042,0,0,83.3218,1034.9,288.943)">
                    <path d="M0.433,-0.398C0.433,-0.398 0.449,-0.386 0.458,-0.372C0.477,-0.344 0.476,-0.32 0.476,-0.32L0.433,-0.32C0.433,-0.32 0.429,-0.352 0.405,-0.369C0.379,-0.387 0.343,-0.396 0.299,-0.396C0.253,-0.396 0.218,-0.387 0.192,-0.368C0.173,-0.354 0.164,-0.339 0.164,-0.321C0.164,-0.302 0.175,-0.285 0.198,-0.272C0.213,-0.263 0.243,-0.256 0.287,-0.251C0.344,-0.245 0.383,-0.238 0.405,-0.23C0.437,-0.219 0.46,-0.203 0.476,-0.183C0.491,-0.163 0.499,-0.141 0.499,-0.118C0.499,-0.083 0.482,-0.052 0.449,-0.025C0.415,0.003 0.367,0.016 0.301,0.016C0.24,0.016 0.196,0 0.174,-0.01C0.148,-0.022 0.126,-0.045 0.115,-0.065C0.103,-0.086 0.098,-0.107 0.098,-0.118L0.141,-0.118C0.142,-0.102 0.148,-0.075 0.181,-0.055C0.213,-0.035 0.259,-0.025 0.3,-0.025C0.353,-0.025 0.393,-0.035 0.419,-0.055C0.445,-0.075 0.458,-0.096 0.458,-0.118C0.458,-0.143 0.445,-0.163 0.418,-0.179C0.392,-0.194 0.353,-0.204 0.302,-0.209C0.251,-0.215 0.215,-0.222 0.192,-0.23C0.17,-0.238 0.153,-0.251 0.141,-0.268C0.128,-0.285 0.122,-0.303 0.122,-0.323C0.122,-0.358 0.139,-0.386 0.174,-0.406C0.208,-0.427 0.25,-0.438 0.297,-0.438C0.353,-0.438 0.398,-0.424 0.433,-0.398Z" style="fill:rgb(98,97,97);fill-rule:nonzero;"/>
                </g>
                <g transform="matrix(1.94182,0,0,1.738,-6918.02,-4734.48)">
                    <path d="M4058.7,2859.71L4058.7,2873.16C4060.01,2871.74 4061.25,2870.75 4062.45,2870.17C4063.65,2869.59 4064.99,2869.3 4066.47,2869.3C4068.06,2869.3 4069.42,2869.58 4070.53,2870.14C4071.65,2870.71 4072.58,2871.57 4073.33,2872.73C4074.08,2873.9 4074.45,2875.12 4074.45,2876.41C4074.45,2876.41 4074.47,2891.2 4074.45,2891.18L4072.37,2891.18C4072.39,2891.16 4072.37,2876.55 4072.37,2876.55C4072.37,2875.07 4071.84,2873.84 4070.78,2872.84C4069.71,2871.85 4068.22,2871.34 4066.32,2871.35C4062.95,2871.39 4059.97,2874 4058.7,2876.55C4058.7,2876.55 4058.69,2891.25 4058.7,2891.18L4056.65,2891.18C4056.55,2891.26 4056.7,2859.73 4056.65,2859.71L4058.7,2859.71Z" style="fill:rgb(98,97,97);fill-rule:nonzero;"/>
                </g>
                <g transform="matrix(0.34304,0,0,0.331573,550.739,-644.189)">
                    <path d="M874.763,2818.59L868.825,2806.75L917.197,2704.17L929.202,2704.17L874.763,2818.59ZM864.576,2774.83L858.969,2786.59L818.03,2704.17L829.825,2704.17L864.576,2774.83Z" style="fill:rgb(98,97,97);fill-rule:nonzero;"/>
                </g>
            </g>
            <g transform="matrix(1.50679,0,0,1.50679,-367.059,-62.0001)">
                <text x="768.458px" y="184.997px" style="font-family:'HelveticaNeue-Light', 'Helvetica Neue';font-weight:300;font-size:46.442px;fill:rgb(98,97,97);">Agendador</text>
            </g>
        </g>
    </g>
</svg>
