<?xml version="1.0" encoding="UTF-8" standalone="no"?>
<!DOCTYPE svg PUBLIC "-//W3C//DTD SVG 1.1//EN" "http://www.w3.org/Graphics/SVG/1.1/DTD/svg11.dtd">
<svg width="100%" height="100%" viewBox="0 0 689 689" version="1.1" xmlns="http://www.w3.org/2000/svg" xmlns:xlink="http://www.w3.org/1999/xlink" xml:space="preserve" xmlns:serif="http://www.serif.com/" style="fill-rule:evenodd;clip-rule:evenodd;stroke-linejoin:round;stroke-miterlimit:2;">
    <g transform="matrix(1,0,0,1,-1219.04,-8.90974)">
        <g transform="matrix(-0.0227911,1.03328,-1.00972,-0.0222716,2312.44,-1238.36)">
            <path d="M1599.69,587.316L1604.3,577.942C1656.26,597.614 1693.24,647.86 1693.24,706.675C1693.24,782.617 1631.58,844.273 1555.64,844.273C1529.14,844.273 1504.38,836.765 1483.37,823.761L1488.84,812.635C1507.91,824.177 1531.81,832.4 1555.64,832.4C1625.19,832.4 1681.66,776.064 1681.66,706.675C1681.66,653.687 1646.29,605.874 1599.69,587.316ZM1455.03,782.358L1449.32,793.98C1429.78,770.22 1418.04,739.807 1418.04,706.675C1418.04,630.732 1479.7,569.076 1555.64,569.076C1557.07,569.076 1558.5,569.098 1559.92,569.142L1554.11,580.959C1485.26,581.778 1429.62,637.795 1429.62,706.675C1429.62,735.08 1439.08,761.297 1455.03,782.358Z" style="fill:rgb(170,169,169);fill-opacity:0.12;"/>
        </g>
        <g transform="matrix(0.664134,-2.4127,2.4127,0.664134,-1174.71,3637.28)">
            <path d="M1599.69,587.316L1604.3,577.942C1656.26,597.614 1693.24,647.86 1693.24,706.675C1693.24,782.617 1631.58,844.273 1555.64,844.273C1529.14,844.273 1504.38,836.765 1483.37,823.761L1488.84,812.635C1507.91,824.177 1531.81,832.4 1555.64,832.4C1625.19,832.4 1681.66,776.064 1681.66,706.675C1681.66,653.687 1646.29,605.874 1599.69,587.316ZM1455.03,782.358L1449.32,793.98C1429.78,770.22 1418.04,739.807 1418.04,706.675C1418.04,630.732 1479.7,569.076 1555.64,569.076C1557.07,569.076 1558.5,569.098 1559.92,569.142L1554.11,580.959C1485.26,581.778 1429.62,637.795 1429.62,706.675C1429.62,735.08 1439.08,761.297 1455.03,782.358Z" style="fill:rgb(170,169,169);fill-opacity:0.11;"/>
        </g>
    </g>
</svg>
