<?xml version="1.0" encoding="UTF-8" standalone="no"?>
<!DOCTYPE svg PUBLIC "-//W3C//DTD SVG 1.1//EN" "http://www.w3.org/Graphics/SVG/1.1/DTD/svg11.dtd">
<svg width="100%" height="100%" viewBox="0 0 1920 1080" version="1.1" xmlns="http://www.w3.org/2000/svg" xmlns:xlink="http://www.w3.org/1999/xlink" xml:space="preserve" xmlns:serif="http://www.serif.com/" style="fill-rule:evenodd;clip-rule:evenodd;stroke-linejoin:round;stroke-miterlimit:2;">
    <g transform="matrix(3.42569e-17,-0.559457,1.75018,1.07168e-16,17.581,1080.47)">
        <rect x="-6.209" y="-10.121" width="1937.79" height="1098.57" style="fill:url(#_Linear1);"/>
    </g>
    <g transform="matrix(-3.05019,-0.494389,0.494389,-3.05019,5969.59,4199.58)">
        <path d="M1673.38,751.551C1654.86,799.836 1607.27,832.302 1555.64,832.4C1532.19,832.444 1508.77,824.698 1488.84,812.635L1483.37,823.761C1543.77,861.147 1625.25,844.956 1667,787.47C1675.43,775.858 1681.99,763.076 1686.45,749.432L1673.38,751.551Z" style="fill:rgb(170,169,169);fill-opacity:0.16;"/>
    </g>
    <g transform="matrix(1.68502,0.273115,-0.273115,1.68502,-2234.48,-1410.1)">
        <path d="M1599.69,587.316L1604.3,577.942C1656.26,597.614 1693.24,647.86 1693.24,706.675C1693.24,782.617 1631.58,844.273 1555.64,844.273C1529.14,844.273 1504.38,836.765 1483.37,823.761L1488.84,812.635C1507.91,824.177 1531.81,832.4 1555.64,832.4C1625.19,832.4 1681.66,776.064 1681.66,706.675C1681.66,653.687 1646.29,605.874 1599.69,587.316Z" style="fill:rgb(170,169,169);fill-opacity:0.12;"/>
    </g>
    <g transform="matrix(1.68502,0.273115,-0.273115,1.68502,-2234.48,-1410.1)">
        <path d="M1500.35,593.683C1468.88,609.051 1444.76,637.121 1434.72,671.179L1431.02,648.311C1440.19,628.762 1453.84,611.719 1470.63,598.499L1500.35,593.683Z" style="fill:rgb(170,169,169);fill-opacity:0.12;"/>
    </g>
    <g transform="matrix(0.817676,0.53551,-0.53551,0.817676,-261.367,-698.272)">
        <path d="M1599.69,587.316L1604.3,577.942C1656.26,597.614 1693.24,647.86 1693.24,706.675C1693.24,782.617 1631.58,844.273 1555.64,844.273C1529.14,844.273 1504.38,836.765 1483.37,823.761L1488.84,812.635C1507.91,824.177 1531.81,832.4 1555.64,832.4C1625.19,832.4 1681.66,776.064 1681.66,706.675C1681.66,653.687 1646.29,605.874 1599.69,587.316ZM1455.03,782.358L1449.32,793.98C1429.78,770.22 1418.04,739.807 1418.04,706.675C1418.04,630.732 1479.7,569.076 1555.64,569.076C1557.07,569.076 1558.5,569.098 1559.92,569.142L1554.11,580.959C1485.26,581.778 1429.62,637.795 1429.62,706.675C1429.62,735.08 1439.08,761.297 1455.03,782.358Z" style="fill:rgb(170,169,169);fill-opacity:0.3;"/>
    </g>
    <g transform="matrix(-0.0237659,1.07747,-1.05291,-0.0232241,1566.37,-826.062)">
        <path d="M1599.69,587.316L1604.3,577.942C1656.26,597.614 1693.24,647.86 1693.24,706.675C1693.24,782.617 1631.58,844.273 1555.64,844.273C1529.14,844.273 1504.38,836.765 1483.37,823.761L1488.84,812.635C1507.91,824.177 1531.81,832.4 1555.64,832.4C1625.19,832.4 1681.66,776.064 1681.66,706.675C1681.66,653.687 1646.29,605.874 1599.69,587.316ZM1455.03,782.358L1449.32,793.98C1429.78,770.22 1418.04,739.807 1418.04,706.675C1418.04,630.732 1479.7,569.076 1555.64,569.076C1557.07,569.076 1558.5,569.098 1559.92,569.142L1554.11,580.959C1485.26,581.778 1429.62,637.795 1429.62,706.675C1429.62,735.08 1439.08,761.297 1455.03,782.358Z" style="fill:rgb(170,169,169);fill-opacity:0.05;"/>
    </g>
    <g transform="matrix(1.77895,0.288339,-0.288339,1.77895,-1778.31,-872.005)">
        <path d="M1599.69,587.316L1604.3,577.942C1656.26,597.614 1693.24,647.86 1693.24,706.675C1693.24,782.617 1631.58,844.273 1555.64,844.273C1529.14,844.273 1504.38,836.765 1483.37,823.761L1488.84,812.635C1507.91,824.177 1531.81,832.4 1555.64,832.4C1625.19,832.4 1681.66,776.064 1681.66,706.675C1681.66,653.687 1646.29,605.874 1599.69,587.316ZM1455.03,782.358L1449.32,793.98C1429.78,770.22 1418.04,739.807 1418.04,706.675C1418.04,630.732 1479.7,569.076 1555.64,569.076C1557.07,569.076 1558.5,569.098 1559.92,569.142L1554.11,580.959C1485.26,581.778 1429.62,637.795 1429.62,706.675C1429.62,735.08 1439.08,761.297 1455.03,782.358Z" style="fill:rgb(170,169,169);fill-opacity:0.05;"/>
    </g>
    <g transform="matrix(0.519037,0.339927,-0.339927,0.519037,996.377,-199.932)">
        <path d="M1599.69,587.316L1604.3,577.942C1656.26,597.614 1693.24,647.86 1693.24,706.675C1693.24,782.617 1631.58,844.273 1555.64,844.273C1529.14,844.273 1504.38,836.765 1483.37,823.761L1488.84,812.635C1507.91,824.177 1531.81,832.4 1555.64,832.4C1625.19,832.4 1681.66,776.064 1681.66,706.675C1681.66,653.687 1646.29,605.874 1599.69,587.316ZM1455.03,782.358L1449.32,793.98C1429.78,770.22 1418.04,739.807 1418.04,706.675C1418.04,630.732 1479.7,569.076 1555.64,569.076C1557.07,569.076 1558.5,569.098 1559.92,569.142L1554.11,580.959C1485.26,581.778 1429.62,637.795 1429.62,706.675C1429.62,735.08 1439.08,761.297 1455.03,782.358Z" style="fill:rgb(170,169,169);fill-opacity:0.13;"/>
    </g>
    <g transform="matrix(-0.0227911,1.03328,-1.00972,-0.0222716,2312.44,-1238.36)">
        <path d="M1599.69,587.316L1604.3,577.942C1656.26,597.614 1693.24,647.86 1693.24,706.675C1693.24,782.617 1631.58,844.273 1555.64,844.273C1529.14,844.273 1504.38,836.765 1483.37,823.761L1488.84,812.635C1507.91,824.177 1531.81,832.4 1555.64,832.4C1625.19,832.4 1681.66,776.064 1681.66,706.675C1681.66,653.687 1646.29,605.874 1599.69,587.316ZM1455.03,782.358L1449.32,793.98C1429.78,770.22 1418.04,739.807 1418.04,706.675C1418.04,630.732 1479.7,569.076 1555.64,569.076C1557.07,569.076 1558.5,569.098 1559.92,569.142L1554.11,580.959C1485.26,581.778 1429.62,637.795 1429.62,706.675C1429.62,735.08 1439.08,761.297 1455.03,782.358Z" style="fill:rgb(170,169,169);fill-opacity:0.12;"/>
    </g>
    <g transform="matrix(0.664134,-2.4127,2.4127,0.664134,-1174.71,3637.28)">
        <path d="M1599.69,587.316L1604.3,577.942C1656.26,597.614 1693.24,647.86 1693.24,706.675C1693.24,782.617 1631.58,844.273 1555.64,844.273C1529.14,844.273 1504.38,836.765 1483.37,823.761L1488.84,812.635C1507.91,824.177 1531.81,832.4 1555.64,832.4C1625.19,832.4 1681.66,776.064 1681.66,706.675C1681.66,653.687 1646.29,605.874 1599.69,587.316ZM1455.03,782.358L1449.32,793.98C1429.78,770.22 1418.04,739.807 1418.04,706.675C1418.04,630.732 1479.7,569.076 1555.64,569.076C1557.07,569.076 1558.5,569.098 1559.92,569.142L1554.11,580.959C1485.26,581.778 1429.62,637.795 1429.62,706.675C1429.62,735.08 1439.08,761.297 1455.03,782.358Z" style="fill:rgb(170,169,169);fill-opacity:0.11;"/>
    </g>
    <defs>
        <linearGradient id="_Linear1" x1="0" y1="0" x2="1" y2="0" gradientUnits="userSpaceOnUse" gradientTransform="matrix(1937.79,0,0,1098.57,-6.20898,539.166)"><stop offset="0" style="stop-color:white;stop-opacity:1"/><stop offset="0.17" style="stop-color:rgb(244,244,244);stop-opacity:1"/><stop offset="0.37" style="stop-color:rgb(234,234,234);stop-opacity:1"/><stop offset="1" style="stop-color:rgb(230,230,230);stop-opacity:1"/></linearGradient>
    </defs>
</svg>
