<?xml version="1.0" encoding="UTF-8" standalone="no"?>
<!DOCTYPE svg PUBLIC "-//W3C//DTD SVG 1.1//EN" "http://www.w3.org/Graphics/SVG/1.1/DTD/svg11.dtd">
<svg width="100%" height="100%" viewBox="0 0 117 117" version="1.1" xmlns="http://www.w3.org/2000/svg" xmlns:xlink="http://www.w3.org/1999/xlink" xml:space="preserve" xmlns:serif="http://www.serif.com/" style="fill-rule:evenodd;clip-rule:evenodd;stroke-linejoin:round;stroke-miterlimit:2;">
    <g transform="matrix(1,0,0,1,-1668.49,-42.9851)">
        <g transform="matrix(0.423089,0,0,0.423089,1347.72,-718.447)">
            <path d="M944.44,1808.56C996.398,1828.24 1033.38,1878.48 1033.38,1937.3C1033.38,2013.24 971.724,2074.89 895.781,2074.89C869.28,2074.89 844.518,2067.39 823.51,2054.38L833.857,2033.35C851.704,2044.89 872.967,2051.59 895.781,2051.59C958.86,2051.59 1010.07,2000.38 1010.07,1937.3C1010.07,1887.65 978.352,1845.36 934.092,1829.6L944.44,1808.56ZM789.456,2024.6C769.918,2000.84 758.183,1970.43 758.183,1937.3C758.183,1861.35 819.839,1799.7 895.781,1799.7C897.214,1799.7 898.642,1799.72 900.065,1799.76L888.519,1823.23C828.819,1826.99 781.491,1876.66 781.491,1937.3C781.491,1960.93 788.683,1982.91 800.997,2001.14L789.456,2024.6Z" style="fill:rgb(140,140,140);"/>
        </g>
    </g>
</svg>
